<?xml version="1.0" encoding="iso-8859-1"?>
<!-- Generator: Adobe Illustrator 14.0.0, SVG Export Plug-In . SVG Version: 6.00 Build 43363)  -->
<!DOCTYPE svg PUBLIC "-//W3C//DTD SVG 1.1//EN" "http://www.w3.org/Graphics/SVG/1.1/DTD/svg11.dtd">
<svg version="1.1" id="Layer_1" xmlns="http://www.w3.org/2000/svg" xmlns:xlink="http://www.w3.org/1999/xlink" x="0px" y="0px"
	 width="576px" height="576px" viewBox="0 0 576 576" style="enable-background:new 0 0 576 576;" xml:space="preserve">
<path style="fill:#8E0C3A;" d="M184.05,517.605c-0.037-0.885-0.058-1.405-0.058-1.405l15.948-100.957
	c0.516-1.823,1.22-3.492,2.153-5c0.035-0.057,0.062-0.134,0.097-0.188c1.371-1.891,3.203-3.433,5.246-4.885
	c-3.466-0.097-6.938-0.305-10.36-0.783c-0.008,0-0.014-0.002-0.023-0.002c-3.402-0.58-6.773-1.424-10.106-2.377
	c1.508,2.004,2.791,4.022,3.528,6.234c0.021,0.066,0.014,0.148,0.035,0.213c0.439,1.715,0.602,3.522,0.549,5.414l-11.356,73.561
	l-4.358,28.232l-0.255,0.549c-21.68-2.84-43.976-1.86-49.583,5.127l-0.005-0.004c0,0.005-0.001,0.005-0.001,0.005
	c-0.675,0.849-1.112,1.778-1.27,2.804c-1.55,10.047,24.742,19.656,50.268,23.596c25.525,3.939,53.492,2.708,55.044-7.339
	C230.996,530.979,207.969,521.944,184.05,517.605z M186.946,402.005c0.002,0,0.002,0.004,0.002,0.004c-0.002,0-0.004,0-0.007,0
	L186.946,402.005z M197.849,399.573c28.981,4.473,50.295-14.137,55.04-44.859c5.34-34.596,19.072-159.842,19.072-159.842
	l-83.041-12.818h-0.002c0,0-24.678,123.556-30.018,158.15C154.156,370.927,168.11,394.979,197.849,399.573z M341.532,449.669
	c1.967,9.97,29.962,10.04,55.302,5.041c25.337-4.998,51.209-15.695,49.242-25.668c-0.202-1.015-0.676-1.926-1.384-2.741
	c0,0-0.002-0.005-0.002-0.009h-0.005c-5.894-6.741-28.211-6.8-49.752-3.059l-0.278-0.533l-5.53-28.03l-14.405-73.025
	c-0.133-1.885-0.044-3.697,0.323-5.433c0.018-0.066,0.009-0.146,0.025-0.213c0.646-2.242,1.841-4.312,3.267-6.377
	c-3.292,1.092-6.625,2.078-10,2.795c-0.008,0.004-0.016,0.004-0.022,0.006c-3.4,0.617-6.86,0.971-10.318,1.213
	c2.099,1.365,3.995,2.83,5.443,4.66c0.037,0.055,0.068,0.131,0.104,0.184c0.997,1.465,1.769,3.108,2.36,4.908l20.132,100.207
	c0,0,0,0.519,0.002,1.406C362.317,430.331,339.688,440.318,341.532,449.669z M378.341,309.622c-0.003,0-0.004,0-0.007,0
	c0,0,0,0,0.001,0H378.341z M403.787,246.705c-6.774-34.344-36.569-156.766-36.569-156.766h-0.003l-82.434,16.263
	c0,0,18.927,124.562,25.701,158.908c6.018,30.5,28.088,48.207,56.858,42.533C396.862,301.817,409.805,277.206,403.787,246.705z
	 M208.798,175.718c-6.987,0-12.652-5.664-12.652-12.652c0-6.987,5.665-12.652,12.652-12.652c6.988,0,12.652,5.665,12.652,12.652
	C221.45,170.054,215.786,175.718,208.798,175.718z M240.429,147.882c-4.192,0-7.591-3.398-7.591-7.592
	c0-4.191,3.399-7.59,7.591-7.59c4.193,0,7.592,3.398,7.592,7.59C248.021,144.483,244.622,147.882,240.429,147.882z M245.068,169.393
	c-4.192,0-7.591-3.399-7.591-7.592s3.399-7.591,7.591-7.591s7.592,3.398,7.592,7.591S249.261,169.393,245.068,169.393z
	 M214.475,129.687c-4.192,0-7.591-3.398-7.591-7.592c0-4.191,3.399-7.59,7.591-7.59c4.193,0,7.592,3.398,7.592,7.59
	C222.067,126.288,218.668,129.687,214.475,129.687z M235.142,114.082c-3.028,0-5.482-2.454-5.482-5.483
	c0-3.027,2.455-5.482,5.482-5.482c3.028,0,5.483,2.455,5.483,5.482C240.625,111.628,238.17,114.082,235.142,114.082z
	 M264.666,126.313c-4.192,0-7.591-3.398-7.591-7.592c0-4.192,3.399-7.592,7.591-7.592c4.193,0,7.592,3.399,7.592,7.592
	C272.257,122.915,268.858,126.313,264.666,126.313z M260.448,98.055c-3.028,0-5.483-2.454-5.483-5.483
	c0-3.027,2.455-5.482,5.483-5.482s5.483,2.455,5.483,5.482C265.931,95.601,263.476,98.055,260.448,98.055z M308.95,90.517
	c-4.193,0-7.591-3.398-7.591-7.592c0-4.191,3.398-7.59,7.591-7.59c4.192,0,7.592,3.398,7.592,7.59
	C316.542,87.118,313.142,90.517,308.95,90.517z M297.14,66.056c-4.192,0-7.591-3.4-7.591-7.593s3.399-7.591,7.591-7.591
	s7.592,3.398,7.592,7.591S301.333,66.056,297.14,66.056z M325.398,64.79c-4.192,0-7.591-3.399-7.591-7.592
	c0-4.193,3.399-7.592,7.591-7.592s7.592,3.398,7.592,7.592C332.99,61.391,329.591,64.79,325.398,64.79z M330.881,85.456
	c-4.192,0-7.591-3.398-7.591-7.592c0-4.191,3.399-7.591,7.591-7.591c4.193,0,7.592,3.399,7.592,7.591
	C338.473,82.058,335.074,85.456,330.881,85.456z M311.059,31.47c-3.028,0-5.482-2.455-5.482-5.482s2.454-5.482,5.482-5.482
	s5.483,2.455,5.483,5.482S314.087,31.47,311.059,31.47z M341.271,34.534c-3.175,0-5.749-2.574-5.749-5.75
	c0-3.174,2.574-5.748,5.749-5.748c3.175,0,5.75,2.574,5.75,5.748C347.02,31.96,344.445,34.534,341.271,34.534z M355.539,77.832
	c-5.93,0-10.738-4.808-10.738-10.739c0-5.93,4.808-10.738,10.738-10.738c5.931,0,10.739,4.809,10.739,10.738
	C366.277,73.024,361.469,77.832,355.539,77.832z M266.353,163.008l-0.026,5.011l4.113,2.861l-4.773,1.523l-1.451,4.795l-2.924-4.068
	l-5.009,0.103l2.966-4.038l-1.645-4.732l4.756,1.572L266.353,163.008z M219.536,87.933l-0.025,5.011l4.112,2.862l-4.772,1.523
	l-1.451,4.795l-2.924-4.068l-5.009,0.102l2.966-4.037l-1.645-4.732l4.756,1.572L219.536,87.933z M249.481,114.927l-0.025,5.01
	l4.113,2.861l-4.773,1.524l-1.451,4.795l-2.924-4.068l-5.009,0.103l2.966-4.039l-1.645-4.732l4.756,1.572L249.481,114.927z
	 M192.965,130.11l-0.025,5.01l4.112,2.861l-4.772,1.524l-1.451,4.795l-2.924-4.068l-5.009,0.103l2.966-4.039l-1.645-4.732
	l4.757,1.572L192.965,130.11z M312.746,34.423l-0.026,5.01l4.112,2.862l-4.772,1.524l-1.451,4.795l-2.924-4.068l-5.01,0.102
	l2.966-4.037l-1.645-4.733l4.757,1.573L312.746,34.423z M290.813,18.396l-0.026,5.01l4.113,2.863l-4.773,1.523l-1.451,4.795
	l-2.924-4.068l-5.009,0.102l2.966-4.037l-1.645-4.732l4.756,1.572L290.813,18.396z M351.97,36.954l-0.026,5.01l4.113,2.861
	l-4.773,1.524l-1.451,4.796l-2.924-4.069l-5.009,0.103l2.966-4.039l-1.645-4.732l4.756,1.572L351.97,36.954z M287.018,76.601
	l-0.026,5.01l4.113,2.861l-4.773,1.523l-1.451,4.795l-2.924-4.068l-5.009,0.103l2.966-4.038l-1.645-4.732l4.756,1.572
	L287.018,76.601z"/>
</svg>
