<svg xmlns="http://www.w3.org/2000/svg" viewBox="0 0 791.5 982.15"><title>6</title><g id="Layer_3" data-name="Layer 3"><polygon points="290 116.65 202.67 116.65 363 284.65 290 116.65"/><polygon points="501.73 116.65 428.73 284.65 589.06 116.65 501.73 116.65"/><polygon points="396 309.32 481.33 119.99 310 119.99 396 309.32"/><polygon points="479.33 101.99 396 5.99 313.67 101.99 479.33 101.99"/><path d="M645.25,264.91l83.67-100-84.34-1.49-86,99.49C563.25,266.91,645.25,264.91,645.25,264.91Z" transform="translate(-354.25 -162.92)"/><path d="M939.59,262.41l-86-99.49-84.33,1.49,83.66,100S934.92,266.41,939.59,262.41Z" transform="translate(-354.25 -162.92)"/><path d="M1076.75,518.58c-47.31-68.9-112.26-114.71-181.83-141l-26,29c128.73,48.64,236.83,201.34,236.83,342.27,0,186.44-168.49,356.23-353.5,356.23-187.36,0-358-169.92-358-356.5,0-147.26,102.83-295.34,238.5-340.5L607,377.58c-73,24.31-130.58,69.33-179.44,138-49.22,69.18-73.33,153-73.33,233,0,50.85,7,102.17,29,151,20.94,46.55,53.64,93.83,91,131,36.8,36.6,80.6,64.49,126.67,85,48.93,21.78,100.47,29.5,151.33,29.5s101.23-11,149.73-32.81c46.28-20.77,90-46.54,126.77-83.69s67.48-81.42,88-128c21.45-48.69,29-100.86,29-151.73C1145.75,671.55,1124.58,588.23,1076.75,518.58Z" transform="translate(-354.25 -162.92)"/></g></svg>